<svg id="Icon_Set" height="512" viewBox="0 0 256 256" width="512" xmlns="http://www.w3.org/2000/svg"><g><g><g><g><path d="m80.001 72.798c0-3.054.92-6.137 2.832-8.81l32.831-45.894c2.847-3.98 7.439-6.341 12.333-6.341s9.486 2.361 12.333 6.341l32.831 45.894c4.874 6.811 3.301 16.283-3.51 21.155s-16.283 3.301-21.155-3.51l-20.499-28.653-20.498 28.653c-4.872 6.812-14.344 8.383-21.155 3.51-4.138-2.959-6.343-7.617-6.343-12.345z" fill="#3193f3"/></g><path d="m145.726 226.508v-62.559l2.77 3.872c4.872 6.812 14.344 8.383 21.155 3.51s8.384-14.345 3.51-21.156l-32.831-45.893c-2.847-3.98-7.439-6.341-12.333-6.341-4.893 0-9.486 2.361-12.333 6.341l-32.831 45.893c-1.913 2.673-2.832 5.756-2.832 8.81 0 4.728 2.204 9.386 6.343 12.346 6.811 4.873 16.283 3.301 21.155-3.51l2.77-3.872v62.56c0 9.791 7.937 17.728 17.728 17.728s17.729-7.938 17.729-17.729z" fill="#3193f3"/></g><g><g><path d="m82.838 78.985c-.31.43-.59.87-.85 1.32-1.31-2.3-1.99-4.89-1.99-7.51 0-3.05.92-6.13 2.84-8.81l32.83-45.89c2.84-3.98 7.44-6.34 12.33-6.34s9.49 2.36 12.33 6.34l32.83 45.89c3.56 4.96 3.68 11.35.85 16.33-.26-.45-.54-.9-.85-1.33l-32.83-45.89c-2.84-3.98-7.44-6.34-12.33-6.34s-9.49 2.36-12.33 6.34z" fill="#35b1fc"/></g><path d="m81.988 166.505c-1.31-2.3-1.99-4.9-1.99-7.52 0-3.05.92-6.14 2.84-8.81l32.83-45.89c2.84-3.98 7.44-6.34 12.33-6.34s9.49 2.36 12.33 6.34l32.83 45.89c3.56 4.96 3.68 11.34.85 16.32-.26-.45-.54-.89-.85-1.32l-32.83-45.89c-2.84-3.98-7.44-6.34-12.33-6.34s-9.49 2.36-12.33 6.34l-32.83 45.89c-.31.43-.59.88-.85 1.33z" fill="#35b1fc"/></g><g><path d="m127.998 244.235c-9.79 0-17.73-7.94-17.73-17.73v-15c0 9.79 7.94 17.73 17.73 17.73s17.73-7.94 17.73-17.73v15c0 9.79-7.94 17.73-17.73 17.73z" fill="#307fed"/></g></g><g fill="#5f266d"><path d="m84.017 88.397c8.594 6.15 20.563 4.194 26.735-4.436l17.245-24.105 17.244 24.105c6.163 8.614 18.121 10.601 26.736 4.437 8.615-6.163 10.601-18.121 4.437-26.736l-32.831-45.894c-7.632-10.669-23.538-10.674-31.172 0l-32.83 45.893c-6.206 8.672-4.097 20.634 4.436 26.736zm2.07-22.081 32.832-45.894c4.444-6.217 13.71-6.217 18.159 0l32.831 45.894c3.59 5.019 2.435 11.984-2.585 15.574-5.021 3.591-11.984 2.435-15.575-2.584l-20.498-28.653c-1.594-2.229-4.912-2.228-6.506 0l-20.499 28.653c-3.583 5.01-10.546 6.181-15.574 2.584-4.95-3.54-6.215-10.5-2.585-15.574z"/><path d="m143.584 101.954c-7.632-10.669-23.538-10.674-31.172 0l-32.831 45.894c-6.205 8.671-4.098 20.632 4.437 26.736 6.947 4.97 15.899 4.565 22.252.046v51.877c0 11.981 9.747 21.728 21.729 21.728 11.98 0 21.728-9.747 21.728-21.728v-51.877c6.317 4.496 15.272 4.948 22.253-.045 8.614-6.163 10.601-18.122 4.437-26.736zm23.74 66.124c-5.007 3.582-11.977 2.445-15.575-2.585l-2.771-3.872c-2.253-3.149-7.253-1.556-7.253 2.328v62.559c0 7.57-6.158 13.728-13.728 13.728s-13.729-6.158-13.729-13.728v-62.56c0-3.875-4.995-5.484-7.254-2.327l-2.769 3.872c-3.589 5.016-10.555 6.178-15.575 2.584-4.954-3.544-6.212-10.505-2.585-15.575l32.832-45.894c4.444-6.217 13.71-6.217 18.159 0l32.831 45.894c3.592 5.02 2.436 11.986-2.583 15.576z"/><path d="m127.998 204.995c-2.209 0-4 1.791-4 4v20c0 2.209 1.791 4 4 4s4-1.791 4-4v-20c0-2.209-1.791-4-4-4z"/><path d="m127.998 185.536c-2.209 0-4 1.791-4 4v4.459c0 2.209 1.791 4 4 4s4-1.791 4-4v-4.459c0-2.209-1.791-4-4-4z"/></g></g></svg>