<?xml version="1.0" encoding="utf-8"?>
<!-- Generator: Adobe Illustrator 21.0.0, SVG Export Plug-In . SVG Version: 6.00 Build 0)  -->
<svg xmlns="http://www.w3.org/2000/svg" xmlns:xlink="http://www.w3.org/1999/xlink" version="1.1" id="Layer_1" x="0px" y="0px" viewBox="0 0 256 256" style="enable-background:new 0 0 256 256;" xml:space="preserve" width="512" height="512">
<style type="text/css">
	.st0{fill:#FC7783;}
	.st1{fill:#FCACB6;}
	.st2{fill:#EA4647;}
	.st3{fill:#FFCD29;}
	.st4{fill:#6DCC6D;}
	.st5{fill:#55ACD5;}
	.st6{fill:#231F20;}
</style>
<g id="Layer_18">
	<path class="st0" d="M236.1,39c-13.3-13.3-33.9-16.2-50.3-7.1c-20.4-11.3-46.1-3.9-57.4,16.5c-9.1,16.5-6.2,37,7.1,50.3l34.3,34.3   l0.1,0.1c8.8,8.7,23,8.7,31.9,0l0.1-0.1l34.3-34.3C252.6,82.2,252.6,55.5,236.1,39z"/>
	<path class="st1" d="M185.8,139.7c-6,0-11.7-2.3-15.9-6.5l-0.1-0.1l-34.3-34.3C123.7,87,119.9,69.5,125.8,54   c-7.5,0.8-14.9,2.8-21.7,5.9c-34-15.8-74.4-1.1-90.2,32.9C2.1,118.1,7,148,26.2,168.3c0.3-0.4,0.6-0.7,0.9-1l0,0   c6.6-6.6,17.4-6.6,24,0c0,0,0,0,0,0c0.4,0.4,1,0.4,1.3,0c0,0,0,0,0,0c6.6-6.6,17.4-6.6,24,0c0,0,0,0,0,0l0,0c6.6,6.6,6.6,17.4,0,24   c0,0,0,0,0,0l-13.7,13.7l12.6,12.6l0.1,0.1c15.8,15.7,41.2,15.7,57.1,0.1l0.2-0.2l47.9-47.9c9.4-9.3,15.8-21.2,18.5-34.2   C195.3,138.2,190.6,139.7,185.8,139.7z"/>
	<path class="st0" d="M169.9,133.2l-0.1-0.1l-34.3-34.3c-7.8-7.8-12.3-18.4-12.4-29.5c-6.8,1.2-13.2,3.8-19,7.5   c-24.7-15.8-57.6-8.6-73.4,16.2c-13.4,21-10.4,48.5,7.2,66.2l3.3,3.3c3.8,0.5,7.3,2.2,9.9,4.8c0.4,0.4,1,0.4,1.3,0c0,0,0,0,0,0   c6.6-6.6,17.4-6.6,24,0c0,0,0,0,0,0l0,0c6.6,6.6,6.6,17.4,0,24c0,0,0,0,0,0l-3.2,3.2L85.8,207l0.1,0.1c10,9.9,26.2,10,36.2,0   l0.1-0.1l47.9-47.9c5.6-5.5,9.8-12.2,12.5-19.6C177.8,138.8,173.3,136.6,169.9,133.2z"/>
	<path class="st2" d="M135.4,98.7c-4.2-4.2-7.5-9.3-9.7-14.9c-7.7,1.4-14.7,5.1-20.2,10.6c-0.8,0.8-2.2,0.8-3,0c0,0,0,0,0,0   c-15-15-39.2-15-54.2,0c0,0,0,0,0,0l0,0c-15,15-15,39.2,0,54.2c0,0,0,0,0,0l13.8,13.8c5.3-0.7,10.6,1,14.3,4.8l0,0   c3.8,3.8,5.5,9,4.8,14.3l15,15l0.1,0.1c4.3,4.2,11.1,4.2,15.4,0l0.1-0.1l47.9-47.9c4.5-4.5,7.8-9.9,9.6-16L135.4,98.7z"/>
	<path class="st2" d="M76.4,167.2c-6.6-6.6-17.4-6.6-24,0c0,0,0,0,0,0c-0.4,0.4-1,0.4-1.3,0c-6.6-6.6-17.4-6.6-24,0s-6.6,17.4,0,24   l21.2,21.2l0,0c1.9,1.9,4.9,1.9,6.8,0l0,0l21.2-21.2C83.1,184.6,83.1,173.9,76.4,167.2C76.4,167.2,76.4,167.2,76.4,167.2z"/>
	<path class="st2" d="M225.7,49.5L225.7,49.5c-10.7-10.7-28.1-10.7-38.8,0c0,0,0,0,0,0c-0.6,0.6-1.5,0.6-2.1,0   c-10.7-10.7-28.1-10.7-38.8,0c0,0,0,0,0,0l0,0c-10.7,10.7-10.7,28.1,0,38.8c0,0,0,0,0,0l34.3,34.3l0.1,0.1c3.1,3,8,3,11,0l0.1-0.1   l34.3-34.3C236.4,77.6,236.4,60.2,225.7,49.5C225.7,49.5,225.7,49.5,225.7,49.5z"/>
	<path class="st3" d="M122.6,15.2h-1.8v-1.8c0-1.4-1.1-2.5-2.5-2.5s-2.5,1.1-2.5,2.5v1.8h-1.8c-1.4,0-2.5,1.1-2.5,2.5   c0,1.4,1.1,2.5,2.5,2.5h1.8V22c0,1.4,1.1,2.5,2.5,2.5s2.5-1.1,2.5-2.5v-1.8h1.8c1.4,0,2.5-1.1,2.5-2.5S124,15.2,122.6,15.2z"/>
	<path class="st4" d="M4.9,199.3c-0.1-0.3-0.2-0.6-0.4-0.9c-0.1-0.1-0.2-0.3-0.3-0.4c-1-0.9-2.5-0.9-3.5,0c-0.1,0.1-0.2,0.2-0.3,0.4   c-0.1,0.1-0.2,0.3-0.2,0.4c-0.1,0.2-0.1,0.3-0.1,0.5c-0.1,0.3-0.1,0.7,0,1c0,0.2,0.1,0.3,0.1,0.5c0.1,0.1,0.1,0.3,0.2,0.4   c0.1,0.1,0.2,0.3,0.3,0.4c1,1,2.5,1,3.5,0c0,0,0,0,0,0c0.1-0.1,0.2-0.2,0.3-0.4c0.1-0.1,0.2-0.3,0.2-0.4c0.1-0.1,0.1-0.3,0.1-0.5   C5,199.9,5,199.6,4.9,199.3z"/>
	<path class="st4" d="M227.3,143.4c-0.1-0.3-0.2-0.6-0.4-0.9c-0.1-0.1-0.2-0.3-0.3-0.4c-1-0.9-2.5-0.9-3.5,0   c-0.1,0.1-0.2,0.2-0.3,0.4c-0.1,0.1-0.2,0.3-0.2,0.4c-0.1,0.2-0.1,0.3-0.1,0.5c-0.1,0.3-0.1,0.7,0,1c0,0.2,0.1,0.3,0.1,0.5   c0.1,0.1,0.1,0.3,0.2,0.4c0.1,0.1,0.2,0.3,0.3,0.4c1,1,2.5,1,3.5,0c0,0,0,0,0,0c0.1-0.1,0.2-0.2,0.3-0.4c0.1-0.1,0.2-0.3,0.2-0.4   c0.1-0.1,0.1-0.3,0.1-0.5C227.4,144,227.4,143.7,227.3,143.4z"/>
	<path class="st2" d="M255.8,120.9c-4.1-0.8-7.2-4-8-8c0-0.1-0.1-0.2-0.2-0.2c-0.1,0-0.1,0.1-0.2,0.2c-0.8,4.1-4,7.2-8,8   c-0.1,0-0.2,0.1-0.2,0.2c0,0.1,0.1,0.1,0.2,0.2c4.1,0.8,7.2,4,8,8c0,0.1,0.1,0.2,0.2,0.2c0.1,0,0.1-0.1,0.2-0.2c0.8-4.1,4-7.2,8-8   c0.1,0,0.2-0.1,0.2-0.2C256,121,255.9,120.9,255.8,120.9z"/>
	<path class="st5" d="M33.6,221c-4.1-0.8-7.2-4-8-8c0-0.1-0.1-0.2-0.2-0.2c-0.1,0-0.1,0.1-0.2,0.2c-0.8,4.1-4,7.2-8,8   c-0.1,0-0.2,0.1-0.2,0.2c0,0.1,0.1,0.1,0.2,0.2c4.1,0.8,7.2,4,8,8c0,0.1,0.1,0.2,0.2,0.2c0.1,0,0.1-0.1,0.2-0.2c0.8-4.1,4-7.2,8-8   c0.1,0,0.2-0.1,0.2-0.2C33.8,221,33.7,221,33.6,221z"/>
	<path class="st6" d="M237.9,37.2c-13.8-13.7-34.8-17-52.1-8.2c-22-11.3-49-2.7-60.3,19.3c-8.9,17.3-5.6,38.4,8.1,52.1l34.3,34.3   l0.1,0.1c9.8,9.7,25.6,9.7,35.4,0l34.5-34.4C255.3,83,255.3,54.7,237.9,37.2z M234.4,97L200,131.3l1.8,1.8l-1.9-1.7   c-7.9,7.8-20.5,7.8-28.3,0l-0.1-0.1L137.2,97c-15.5-15.5-15.5-40.7,0-56.2c12.5-12.5,31.8-15.2,47.3-6.7c0.8,0.4,1.7,0.4,2.4,0   c19.2-10.6,43.4-3.7,54,15.5C249.6,65.1,246.9,84.4,234.4,97L234.4,97z"/>
	<path class="st6" d="M200.5,133.2c-0.9-0.6-2-0.5-2.8,0.1c-8,5.9-19,5-26.1-1.9L137.2,97c-11-11-14.6-27.5-9.1-42.1   c0.5-1.3-0.2-2.7-1.5-3.2c-0.4-0.1-0.7-0.2-1.1-0.1c-7.4,0.7-14.7,2.7-21.5,5.7c-26.6-11.8-57.8-6-78.4,14.6   c-27,27-27.6,70.6-1.3,98.3c1,1,2.5,1,3.5,0.1c0.1-0.1,0.1-0.1,0.2-0.2c0.3-0.3,0.5-0.6,0.8-0.9c5.7-5.6,14.8-5.6,20.5,0   c1.4,1.3,3.5,1.3,4.9,0c5.7-5.7,14.8-5.7,20.5,0s5.7,14.8,0,20.5L61,203.1c-1,1-1,2.6,0,3.5c0,0,0,0,0,0l12.6,12.6l0.1,0.1   c16.8,16.6,43.8,16.7,60.6,0.1l48.2-48.2c9.7-9.7,16.4-22,19.2-35.5C201.8,134.8,201.4,133.8,200.5,133.2z M178.9,167.8L131,215.7   l-0.2,0.2c-14.9,14.7-38.8,14.6-53.6-0.1l-10.9-10.9L78.2,193c7.6-7.6,7.6-19.9,0-27.5c-7.2-7.2-18.7-7.6-26.4-1   c-7.4-6.3-18.2-6.2-25.5,0.2C2.4,137.5,5.1,96.1,32.3,72.3C51.8,55.2,79.5,51.3,103,62.2c0.7,0.3,1.4,0.3,2.1,0   c5.4-2.5,11.2-4.3,17.1-5.2c-4.3,15.5,0.1,32.1,11.5,43.5l34.3,34.3l0.1,0.1c7.2,7.1,17.9,9.2,27.2,5.4   C192.2,150.7,186.6,160.1,178.9,167.8z"/>
	<path class="st6" d="M184.8,138.2c-0.4-0.6-1.1-1.1-1.8-1.2c-4.3-0.6-8.3-2.5-11.4-5.6l0,0L137.2,97c-7.4-7.3-11.6-17.3-11.6-27.7   c0-1.4-1.1-2.5-2.5-2.5c-0.1,0-0.3,0-0.4,0c-6.6,1.2-12.9,3.5-18.6,7c-21.9-13-49.8-9.5-67.9,8.4c-21.7,21.7-21.7,56.9,0,78.7   l3.3,3.3c0.4,0.4,0.9,0.6,1.5,0.7c3.2,0.4,6.2,1.8,8.5,4.1c1.4,1.3,3.5,1.3,4.9,0c5.7-5.7,14.8-5.7,20.5,0c5.7,5.7,5.7,14.8,0,20.5   l-3.2,3.2c-1,1-1,2.6,0,3.5l12.7,12.7c11,10.9,28.7,10.9,39.8,0l48.1-48.1c5.8-5.8,10.3-12.8,13-20.5   C185.3,139.6,185.2,138.8,184.8,138.2z M168.4,157.3l-47.9,47.9l-0.1,0.1c-9.1,8.9-23.6,8.9-32.7,0l-10.9-10.9l1.4-1.4   c7.6-7.6,7.6-19.9,0-27.5c-7.2-7.2-18.7-7.6-26.4-1c-2.7-2.3-5.9-3.8-9.4-4.4l-2.7-2.7c-19.8-19.8-19.8-51.8,0-71.6   c16.9-16.7,43-19.5,63.1-6.9c0.8,0.5,1.9,0.5,2.7,0c4.7-3,9.9-5.2,15.3-6.5c0.8,10.6,5.4,20.6,13,28.2l34.3,34.3l0.1,0.1   c3.1,3.1,6.9,5.3,11.2,6.4C176.7,147.3,173,152.7,168.4,157.3z"/>
	<path class="st6" d="M171.1,130.9L137.2,97c-4-4-7.1-8.8-9.1-14.1c-0.4-1.1-1.6-1.8-2.8-1.6c-8,1.4-15.5,5.3-21.3,11   C88,76.5,62.1,76.8,46.3,92.8c-15.7,16-15.6,41.7,0.3,57.6l13.8,13.8c0.6,0.6,1.3,0.8,2.1,0.7c7.9-1.1,15.2,4.4,16.3,12.3   c0.2,1.3,0.2,2.7,0,4c-0.1,0.8,0.2,1.6,0.7,2.1l15.1,15.1c5.2,5.2,13.7,5.2,18.9,0l0.1-0.1l47.9-47.9c4.7-4.7,8.3-10.6,10.2-17   C172,132.5,171.8,131.5,171.1,130.9z M158,146.9l-48,48c-3.3,3.3-8.6,3.3-11.9,0l-14.3-14.2c0.8-10.7-7.3-20-18-20.8   c-0.9-0.1-1.9-0.1-2.8,0l-13-13c-14-14-14-36.7,0-50.7s36.7-14,50.7,0c1.8,1.8,4.7,1.8,6.5,0c0,0,0,0,0,0c4.7-4.7,10.5-8,16.9-9.5   c2.2,5.2,5.4,9.9,9.4,13.8l32.8,32.8C164.7,138.4,161.8,143,158,146.9L158,146.9z"/>
	<path class="st6" d="M78.2,165.5c-7.2-7.2-18.7-7.6-26.4-1c-8.2-7-20.5-6-27.5,2.1c-6.6,7.7-6.2,19.2,1,26.4l21.3,21.3   c1.4,1.4,3.2,2.1,5.2,2.1c2,0,3.8-0.8,5.2-2.2L78.2,193C85.8,185.4,85.8,173.1,78.2,165.5z M74.7,189.5l-21.2,21.2   c-0.9,0.9-2.4,0.9-3.3,0l-21.2-21.2c-5.6-5.7-5.6-14.8,0.1-20.5c5.6-5.6,14.7-5.6,20.4,0c1.4,1.3,3.5,1.3,4.9,0   c5.7-5.7,14.8-5.7,20.5,0C80.3,174.7,80.3,183.8,74.7,189.5L74.7,189.5z"/>
	<path class="st6" d="M227.4,47.7C216,36.3,197.6,36,185.8,47c-12.1-11.3-31-10.7-42.3,1.4c-11.1,11.8-10.8,30.2,0.7,41.7l34.4,34.4   c1.9,1.9,4.5,3,7.3,3c2.8,0,5.4-1.1,7.4-3l34.3-34.3C239.1,78.4,239.1,59.4,227.4,47.7C227.4,47.7,227.4,47.7,227.4,47.7z    M223.9,86.5l-34.4,34.4c-2.1,2.1-5.5,2-7.6,0l-34.3-34.3c-9.7-9.7-9.7-25.5,0-35.3c9.7-9.7,25.5-9.7,35.3,0l0,0   c1.6,1.6,4.1,1.6,5.7,0c9.7-9.7,25.5-9.7,35.3,0C233.7,61,233.7,76.8,223.9,86.5L223.9,86.5z"/>
</g>
</svg>
